<?xml version="1.0" encoding="UTF-8" standalone="no"?>
<svg
   width="58.456001"
   height="58.456001"
   viewBox="0 0 58.456001 58.456001"
   version="1.1"
   xml:space="preserve"
   style="clip-rule:evenodd;fill-rule:evenodd;stroke-linecap:round;stroke-linejoin:round;stroke-miterlimit:1.5"
   id="svg13"
   sodipodi:docname="icon.svg"
   inkscape:version="1.4 (86a8ad7, 2024-10-11)"
   inkscape:export-filename="icon128.png"
   inkscape:export-xdpi="210.20938"
   inkscape:export-ydpi="210.20938"
   xmlns:inkscape="http://www.inkscape.org/namespaces/inkscape"
   xmlns:sodipodi="http://sodipodi.sourceforge.net/DTD/sodipodi-0.dtd"
   xmlns="http://www.w3.org/2000/svg"
   xmlns:svg="http://www.w3.org/2000/svg"><defs
   id="defs13">
            
        
            
        
            
        
            
        
            
        
            
        
        
    
        
        
        
        
    
                
            
                
            
            
        
                
            
                
            </defs><sodipodi:namedview
   id="namedview13"
   pagecolor="#ffffff"
   bordercolor="#000000"
   borderopacity="0.25"
   inkscape:showpageshadow="2"
   inkscape:pageopacity="0.0"
   inkscape:pagecheckerboard="0"
   inkscape:deskcolor="#d1d1d1"
   inkscape:zoom="6.1481482"
   inkscape:cx="23.177711"
   inkscape:cy="20.006024"
   inkscape:window-width="1920"
   inkscape:window-height="1010"
   inkscape:window-x="-6"
   inkscape:window-y="-6"
   inkscape:window-maximized="1"
   inkscape:current-layer="layer1" />
    
    
    
<g
   inkscape:groupmode="layer"
   id="layer1"
   inkscape:label="Icon"
   transform="translate(-1.0631163,-5.7617733)"><rect
     x="4.7407527"
     y="14.847624"
     width="36.447006"
     height="48.485447"
     style="clip-rule:evenodd;fill:#800000;fill-rule:evenodd;stroke:#000000;stroke-width:2.44167px;stroke-linecap:round;stroke-linejoin:round;stroke-miterlimit:1.5"
     id="rect2"
     transform="matrix(0.99952358,-0.03086449,0.08313323,0.99653844,0,0)"
     inkscape:label="Back-Cover" /><path
     id="Pages"
     d="m 18.205389,56.422435 -8.201658,6.545576 34.877376,-1.076985 8.202657,-6.545608 z"
     style="clip-rule:evenodd;fill:#dabaab;fill-rule:evenodd;stroke:#000000;stroke-width:2.5px;stroke-linecap:round;stroke-linejoin:round;stroke-miterlimit:1.5"
     sodipodi:nodetypes="ccccc" /><g
     id="Spine"
     transform="rotate(-1.7686857,-14978.963,15898.824)"
     style="clip-rule:evenodd;fill-rule:evenodd;stroke-linecap:round;stroke-linejoin:round;stroke-miterlimit:1.5">
            <path
   d="m 491.62822,533.13932 8.39978,-6.28932 -2.537,-48.42 -8.40078,6.29032 z"
   style="fill:#800000"
   id="path2"
   inkscape:label="Color"
   sodipodi:nodetypes="ccccc" />
            <path
   d="m 491.21432,525.23924 8.39978,-6.29032"
   style="fill:none;stroke:#bc7c00;stroke-width:2.5px"
   id="path3"
   inkscape:label="Detail-Bottom"
   sodipodi:nodetypes="cc" />
            <path
   d="m 489.46632,491.89524 8.40078,-6.29032"
   style="fill:none;stroke:#bc7c00;stroke-width:2.5px"
   id="path4"
   inkscape:label="Detail-Top"
   sodipodi:nodetypes="cc" />
            <path
   d="m 491.62822,533.13932 8.39978,-6.28932 -2.537,-48.42 -8.40078,6.29032 z"
   style="fill:none;stroke:#000000;stroke-width:2.5px"
   id="path5"
   inkscape:label="Outline"
   sodipodi:nodetypes="ccccc" />
        </g><g
     id="Cover"
     transform="rotate(-1.7686857,-14978.963,15898.824)"
     style="clip-rule:evenodd;fill-rule:evenodd;stroke-linecap:round;stroke-linejoin:round;stroke-miterlimit:1.5">
            <rect
   x="472.41727"
   y="479.08664"
   width="36.446999"
   height="48.485447"
   style="fill:#800000;stroke:#000000;stroke-width:2.44167px"
   id="rect5"
   transform="matrix(1,0,0.05233598,0.99862953,0,0)"
   inkscape:label="Color" />
            <path
   d="m 511.62722,513.80658 c -1.31609,-0.26305 -2.54018,-0.6108 -3.60543,-1.04167 -1.76923,-0.71528 -3.14359,-1.71269 -3.95675,-2.82237 -0.68361,-0.93396 -0.75689,-2.44225 -0.16322,-3.36612 0.59285,-0.92364 1.62936,-0.91548 2.3138,0.0186 0.37466,0.51184 0.94914,0.92052 1.66462,1.26718 0.44991,-5.53859 -0.35451,-13.65317 -1.53527,-19.92119 -0.0318,-0.16626 -0.0103,-0.33851 0.0562,-0.4695 0.0673,-0.13099 0.17379,-0.2068 0.29001,-0.2068 h 19.2766 c 0.11374,0 0.22635,0.0727 0.30632,0.19889 0.0808,0.12631 0.12171,0.2934 0.11215,0.45714 -0.3258,5.64187 -0.40391,13.03745 0.13153,17.96992 0.085,0.78833 0.18388,1.51128 0.2997,2.14847 0.71906,-0.35578 1.29189,-0.7178 1.57589,-1.24379 0.53805,-0.99429 1.56672,-1.10417 2.29421,-0.24518 0.72748,0.85874 0.88215,2.36307 0.3449,3.357 -0.56447,1.04059 -1.60962,1.99986 -3.05558,2.70302 -1.15498,0.5621 -2.5935,0.99837 -4.1899,1.30041 -0.0593,2.21889 -0.59882,3.78236 -1.01827,5.51412 -0.0447,0.18485 -0.17526,0.28873 -0.31335,0.24902 -0.13725,-0.0397 -0.24438,-0.21231 -0.25575,-0.41347 -0.093,-1.61709 -0.15824,-3.20815 -0.47039,-5.04379 -0.0942,0.0106 -0.18932,0.0206 -0.28443,0.0302 -0.20094,1.40309 -0.57053,2.57635 -0.8761,3.83898 -0.0447,0.18484 -0.17527,0.28872 -0.31335,0.24902 -0.13725,-0.0397 -0.24439,-0.21232 -0.25575,-0.41348 -0.0667,-1.16258 -0.11951,-2.31173 -0.2593,-3.54797 -0.083,0.004 -0.16528,0.008 -0.24834,0.011 -0.20916,1.13619 -0.51416,2.14224 -0.77375,3.21258 -0.0447,0.18485 -0.17527,0.28873 -0.31253,0.24902 -0.13808,-0.0398 -0.24439,-0.21232 -0.25658,-0.41348 -0.0571,-0.99537 -0.10381,-1.9809 -0.20358,-3.01957 -0.1723,-6e-4 -0.34466,-0.003 -0.51709,-0.006 0.006,1.04767 0.0624,2.04088 0.10842,3.04393 0.01,0.20116 -0.0793,0.37341 -0.21327,0.41287 -0.13312,0.0394 -0.27458,-0.0649 -0.33868,-0.24998 -0.37601,-1.08809 -0.79305,-2.10997 -1.12169,-3.2692 -0.0695,-0.004 -0.1381,-0.009 -0.20675,-0.0133 -0.0173,1.27474 0.052,2.45484 0.10634,3.64909 0.01,0.20116 -0.0793,0.37353 -0.21327,0.41288 -0.13311,0.0395 -0.27458,-0.0649 -0.33867,-0.24987 -0.45078,-1.30376 -0.95922,-2.51253 -1.30628,-3.9762 -0.0464,-0.006 -0.0921,-0.0112 -0.13854,-0.0169 -0.14666,1.93556 -0.0416,3.59343 0.0352,5.27949 0.01,0.20116 -0.0793,0.37341 -0.21245,0.41288 -0.13394,0.0393 -0.2754,-0.0649 -0.3395,-0.24998 -0.62279,-1.80218 -1.35641,-3.42286 -1.62204,-5.7863 z"
   style="fill:#bc7c00;stroke-width:0.0994337"
   id="path6"
   inkscape:label="Hat" />
        </g></g></svg>
