<?xml version="1.0" encoding="UTF-8" standalone="no"?>
<svg
   width="56.457001"
   height="56.457001"
   viewBox="0 0 56.457001 56.457"
   version="1.1"
   xml:space="preserve"
   style="clip-rule:evenodd;fill-rule:evenodd;stroke-linecap:round;stroke-linejoin:round;stroke-miterlimit:1.5"
   id="svg13"
   sodipodi:docname="icon.svg"
   inkscape:version="1.4 (86a8ad7, 2024-10-11)"
   xmlns:inkscape="http://www.inkscape.org/namespaces/inkscape"
   xmlns:sodipodi="http://sodipodi.sourceforge.net/DTD/sodipodi-0.dtd"
   xmlns="http://www.w3.org/2000/svg"
   xmlns:svg="http://www.w3.org/2000/svg"><defs
   id="defs13">
            
        
            
        
            
        
            
        
            
        
            
        
        
    
        
        
        
        
    </defs><sodipodi:namedview
   id="namedview13"
   pagecolor="#ffffff"
   bordercolor="#000000"
   borderopacity="0.25"
   inkscape:showpageshadow="2"
   inkscape:pageopacity="0.0"
   inkscape:pagecheckerboard="0"
   inkscape:deskcolor="#d1d1d1"
   inkscape:zoom="3.0740741"
   inkscape:cx="132.07229"
   inkscape:cy="41.638554"
   inkscape:window-width="1920"
   inkscape:window-height="1010"
   inkscape:window-x="-6"
   inkscape:window-y="-6"
   inkscape:window-maximized="1"
   inkscape:current-layer="layer1" />
    
    
    
<g
   inkscape:groupmode="layer"
   id="layer1"
   inkscape:label="Icon"
   transform="translate(-3.0622021,-5.760933)"><g
     id="Back"
     transform="matrix(0.99952358,-0.03086449,0.08324732,0.99790604,-515.54636,-446.97992)"
     style="clip-rule:evenodd;fill-rule:evenodd;stroke-linecap:round;stroke-linejoin:round;stroke-miterlimit:1.5">
            <rect
   x="484.16"
   y="475.569"
   width="36.446999"
   height="48.418999"
   style="fill:#800000;stroke:#000000;stroke-width:2.44px"
   id="rect2" />
        </g><path
     id="Pages"
     d="m 18.205389,56.422435 -6.201658,4.545576 34.877376,-1.076985 6.202657,-4.545608 z"
     style="clip-rule:evenodd;fill:#dabaab;fill-rule:evenodd;stroke:#000000;stroke-width:2.5px;stroke-linecap:round;stroke-linejoin:round;stroke-miterlimit:1.5" /><g
     id="Spine"
     transform="rotate(-1.7686857,-14978.963,15898.824)"
     style="clip-rule:evenodd;fill-rule:evenodd;stroke-linecap:round;stroke-linejoin:round;stroke-miterlimit:1.5">
            <path
   d="m 493.689,531.202 6.339,-4.352 -2.537,-48.42 -6.34,4.353 z"
   style="fill:#800000"
   id="path2" />
            <g
   transform="translate(-11.6359,-5.36808)"
   id="g3">
                <path
   d="m 504.911,528.67 6.339,-4.353"
   style="fill:none;stroke:#bc7c00;stroke-width:2.5px"
   id="path3" />
            </g>
            <g
   transform="translate(-11.6359,-5.36808)"
   id="g4">
                <path
   d="m 503.163,495.326 6.34,-4.353"
   style="fill:none;stroke:#bc7c00;stroke-width:2.5px"
   id="path4" />
            </g>
            <path
   d="m 493.689,531.202 6.339,-4.352 -2.537,-48.42 -6.34,4.353 z"
   style="fill:none;stroke:#000000;stroke-width:2.5px"
   id="path5" />
        </g><g
     id="Cover"
     transform="rotate(-1.7686857,-14978.963,15898.824)"
     style="clip-rule:evenodd;fill-rule:evenodd;stroke-linecap:round;stroke-linejoin:round;stroke-miterlimit:1.5">
            <g
   transform="matrix(1,0,0.0524078,1,-11.5928,2.86106)"
   id="g5">
                <rect
   x="484.16"
   y="475.569"
   width="36.446999"
   height="48.418999"
   style="fill:#800000;stroke:#000000;stroke-width:2.44px"
   id="rect5" />
            </g>
            <g
   id="Teeth"
   transform="matrix(0.0824244,0,0.00628645,0.119953,411.198,410.35)">
                <path
   d="m 1152.66,862.476 c -15.8,-2.193 -30.43,-5.092 -43.08,-8.684 -21.01,-5.963 -37.05,-14.278 -46.21,-23.529 -7.7,-7.786 -7.63,-20.36 0.16,-28.062 7.78,-7.7 20.35,-7.632 28.06,0.155 4.22,4.267 10.93,7.674 19.39,10.564 8.98,-46.173 4.38,-113.821 -5.96,-166.075 -0.28,-1.386 0.09,-2.822 0.98,-3.914 0.9,-1.092 2.24,-1.724 3.65,-1.724 h 233.87 c 1.38,0 2.7,0.606 3.59,1.658 0.9,1.053 1.29,2.446 1.07,3.811 -7.54,47.034 -13.19,108.688 -9.83,149.808 0.53,6.572 1.27,12.599 2.27,17.911 8.95,-2.966 16.13,-5.984 19.91,-10.369 7.16,-8.289 19.71,-9.205 27.99,-2.044 8.28,7.159 9.2,19.7 2.05,27.986 -7.51,8.675 -20.8,16.672 -38.79,22.534 -14.37,4.686 -32.1,8.323 -51.66,10.841 -2.13,18.498 -9.67,31.532 -15.86,45.969 -0.66,1.541 -2.31,2.407 -3.96,2.076 -1.64,-0.331 -2.83,-1.77 -2.84,-3.447 -0.1,-13.481 0.12,-26.745 -2.5,-42.048 -1.15,0.088 -2.31,0.172 -3.47,0.252 -3.33,11.697 -8.56,21.478 -13.07,32.004 -0.66,1.541 -2.31,2.407 -3.96,2.076 -1.64,-0.331 -2.83,-1.77 -2.84,-3.447 -0.07,-9.692 0.02,-19.272 -0.89,-29.578 -1.01,0.033 -2.01,0.063 -3.02,0.092 -3.26,9.472 -7.6,17.859 -11.43,26.782 -0.66,1.541 -2.31,2.407 -3.95,2.076 -1.65,-0.332 -2.83,-1.77 -2.85,-3.447 -0.06,-8.298 0,-16.514 -0.55,-25.173 -2.09,-0.005 -4.18,-0.021 -6.27,-0.047 -0.59,8.734 -0.54,17.014 -0.62,25.376 -0.01,1.677 -1.2,3.113 -2.85,3.442 -1.64,0.328 -3.29,-0.541 -3.95,-2.084 -3.87,-9.071 -8.28,-17.59 -11.53,-27.254 -0.84,-0.035 -1.67,-0.072 -2.5,-0.111 -1.02,10.627 -0.93,20.465 -1.03,30.421 -0.01,1.677 -1.2,3.114 -2.85,3.442 -1.64,0.329 -3.29,-0.541 -3.95,-2.083 -4.64,-10.869 -10.04,-20.946 -13.32,-33.148 -0.56,-0.046 -1.11,-0.093 -1.67,-0.141 -3.01,16.136 -2.79,29.957 -2.93,44.013 -0.01,1.677 -1.2,3.113 -2.84,3.442 -1.65,0.328 -3.3,-0.541 -3.96,-2.084 -6.41,-15.024 -14.28,-28.535 -16,-48.238 z"
   style="fill:#bc7c00"
   id="path6" />
            </g>
        </g></g></svg>
